# Exported from Wings 3D 2.1.6
mtllib beam.mtl
o Cylinder1
#64 vertices, 124 faces
v 0.98096988 1.00000000 -7.6327833e-17
v 0.90629800 1.00000000 0.37540092
v 0.69365046 1.00000000 0.69365046
v 0.37540092 1.00000000 0.90629800
v 6.2450045e-17 1.00000000 0.98096988
v -0.37540092 1.00000000 0.90629800
v -0.69365046 1.00000000 0.69365046
v -0.90629800 1.00000000 0.37540092
v -0.98096988 1.00000000 1.1796120e-16
v -0.90629800 1.00000000 -0.37540092
v -0.69365046 1.00000000 -0.69365046
v -0.37540092 1.00000000 -0.90629800
v -1.8041124e-16 1.00000000 -0.98096988
v 0.37540092 1.00000000 -0.90629800
v 0.69365046 1.00000000 -0.69365046
v 0.90629800 1.00000000 -0.37540092
v 0.98096988 -1.00000000 -7.6327833e-17
v 0.90629800 -1.00000000 0.37540092
v 0.69365046 -1.00000000 0.69365046
v 0.37540092 -1.00000000 0.90629800
v 6.2450045e-17 -1.00000000 0.98096988
v -0.37540092 -1.00000000 0.90629800
v -0.69365046 -1.00000000 0.69365046
v -0.90629800 -1.00000000 0.37540092
v -0.98096988 -1.00000000 1.1796120e-16
v -0.90629800 -1.00000000 -0.37540092
v -0.69365046 -1.00000000 -0.69365046
v -0.37540092 -1.00000000 -0.90629800
v -1.8041124e-16 -1.00000000 -0.98096988
v 0.37540092 -1.00000000 -0.90629800
v 0.69365046 -1.00000000 -0.69365046
v 0.90629800 -1.00000000 -0.37540092
v 0.96193977 -1.00000000 0.19134172
v 0.96193977 -1.00000000 -0.19134172
v 0.81549316 -1.00000000 0.54489511
v 0.54489511 -1.00000000 0.81549316
v 0.19134172 -1.00000000 0.96193977
v -0.19134172 -1.00000000 0.96193977
v -0.54489511 -1.00000000 0.81549316
v -0.81549316 -1.00000000 0.54489511
v -0.96193977 -1.00000000 0.19134172
v -0.96193977 -1.00000000 -0.19134172
v -0.81549316 -1.00000000 -0.54489511
v -0.54489511 -1.00000000 -0.81549316
v -0.19134172 -1.00000000 -0.96193977
v 0.19134172 -1.00000000 -0.96193977
v 0.54489511 -1.00000000 -0.81549316
v 0.81549316 -1.00000000 -0.54489511
v 0.96193977 1.00000000 0.19134172
v 0.96193977 1.00000000 -0.19134172
v 0.81549316 1.00000000 0.54489511
v 0.54489511 1.00000000 0.81549316
v 0.19134172 1.00000000 0.96193977
v -0.19134172 1.00000000 0.96193977
v -0.54489511 1.00000000 0.81549316
v -0.81549316 1.00000000 0.54489511
v -0.96193977 1.00000000 0.19134172
v -0.96193977 1.00000000 -0.19134172
v -0.81549316 1.00000000 -0.54489511
v -0.54489511 1.00000000 -0.81549316
v -0.19134172 1.00000000 -0.96193977
v 0.19134172 1.00000000 -0.96193977
v 0.54489511 1.00000000 -0.81549316
v 0.81549316 1.00000000 -0.54489511
vt 2.7000000e-2 7.3648764e-3
vt 2.7000000e-2 0.85360971
vt 5.6561910e-2 7.3644609e-3
vt 5.6561910e-2 0.85361013
vt 8.6120126e-2 7.4075764e-3
vt 8.6120126e-2 0.85356701
vt 0.11567240 7.4477779e-3
vt 0.11567240 0.85352681
vt 0.14522612 7.4576292e-3
vt 0.14522612 0.85351696
vt 0.17477835 7.4649263e-3
vt 0.17477835 0.85350966
vt 0.20434862 7.3968796e-3
vt 0.20434862 0.85357771
vt 0.23392782 7.3366785e-3
vt 0.23392782 0.85363791
vt 0.26352387 7.2512031e-3
vt 0.26352387 0.85372338
vt 0.28244673 0.89992052
vt 0.28279930 0.89637550
vt 0.28279930 0.90346555
vt 0.28383019 0.89296541
vt 0.28383019 0.90687564
vt 0.28551254 0.91001589
vt 0.28551254 0.88982516
vt 0.28776995 0.91277191
vt 0.28776995 0.88706914
vt 0.29052596 0.91502931
vt 0.29052596 0.88481174
vt 0.29313157 0.85378990
vt 0.29313157 7.1846830e-3
vt 0.29366621 0.91671166
vt 0.29366621 0.88312938
vt 0.29707631 0.91774255
vt 0.29707631 0.88209850
vt 0.30062133 0.88174593
vt 0.30062133 0.91809512
vt 0.30416635 0.91774255
vt 0.30416635 0.88209850
vt 0.30757645 0.91671166
vt 0.30757645 0.88312938
vt 0.31071669 0.88481174
vt 0.31071669 0.91502931
vt 0.31347271 0.91277191
vt 0.31347271 0.88706914
vt 0.31573011 0.91001589
vt 0.31573011 0.88982516
vt 0.31741247 0.89296541
vt 0.31741247 0.90687564
vt 0.31844335 0.89637550
vt 0.31844335 0.90346555
vt 0.31879593 0.89992052
vt 0.32267156 0.85370942
vt 0.32267156 7.2651635e-3
vt 0.35220298 0.85364588
vt 0.35220298 7.3287063e-3
vt 0.38176059 7.3405737e-3
vt 0.38176059 0.85363401
vt 0.41131663 7.3494313e-3
vt 0.41131663 0.85362516
vt 0.44087816 7.3513071e-3
vt 0.44087816 0.85362328
vt 0.47043924 7.3525612e-3
vt 0.47043924 0.85362203
vt 0.50000000 7.3529103e-3
vt 0.50000000 0.85362168
vt 0.52956076 0.85362203
vt 0.52956076 7.3525612e-3
vt 0.55912184 7.3513071e-3
vt 0.55912184 0.85362328
vt 0.58868337 7.3494313e-3
vt 0.58868337 0.85362516
vt 0.61823941 7.3405737e-3
vt 0.61823941 0.85363401
vt 0.64779702 7.3287063e-3
vt 0.64779702 0.85364588
vt 0.65693455 0.92645885
vt 0.65728713 0.93000387
vt 0.65728713 0.92291383
vt 0.65831801 0.91950373
vt 0.65831801 0.93341397
vt 0.66000037 0.91636348
vt 0.66000037 0.93655421
vt 0.66225777 0.91360747
vt 0.66225777 0.93931023
vt 0.66501378 0.91135006
vt 0.66501378 0.94156763
vt 0.66815403 0.90966771
vt 0.66815403 0.94324999
vt 0.67156413 0.90863682
vt 0.67156413 0.94428087
vt 0.67510915 0.90828425
vt 0.67510915 0.94463345
vt 0.67732844 7.2651635e-3
vt 0.67732844 0.85370942
vt 0.67865417 0.94428087
vt 0.67865417 0.90863682
vt 0.68206427 0.90966771
vt 0.68206427 0.94324999
vt 0.68520452 0.94156763
vt 0.68520452 0.91135006
vt 0.68796053 0.91360747
vt 0.68796053 0.93931023
vt 0.69021793 0.91636348
vt 0.69021793 0.93655421
vt 0.69190029 0.91950373
vt 0.69190029 0.93341397
vt 0.69293117 0.92291383
vt 0.69293117 0.93000387
vt 0.69328375 0.92645885
vt 0.70686843 7.1846830e-3
vt 0.70686843 0.85378990
vt 0.73647613 7.2512031e-3
vt 0.73647613 0.85372338
vt 0.76607218 7.3366785e-3
vt 0.76607218 0.85363791
vt 0.79565138 7.3968796e-3
vt 0.79565138 0.85357771
vt 0.82522165 7.4649263e-3
vt 0.82522165 0.85350966
vt 0.85477388 7.4576292e-3
vt 0.85477388 0.85351696
vt 0.88432760 7.4477779e-3
vt 0.88432760 0.85352681
vt 0.91387987 7.4075764e-3
vt 0.91387987 0.85356701
vt 0.94343809 7.3644609e-3
vt 0.94343809 0.85361013
vt 0.97300000 7.3648764e-3
vt 0.97300000 0.85360971
vn 0.89354378 0.44897608 -2.1807782e-16
vn 0.82552681 0.44897608 0.34194440
vn 0.63183086 0.44897608 0.63183086
vn 0.34194440 0.44897608 0.82552681
vn 0.0000000e+0 0.44897608 0.89354378
vn -0.34194440 0.44897608 0.82552681
vn -0.63183086 0.44897608 0.63183086
vn -0.82552681 0.44897608 0.34194440
vn -0.89354378 0.44897608 2.7415497e-16
vn -0.82552681 0.44897608 -0.34194440
vn -0.63183086 0.44897608 -0.63183086
vn -0.34194440 0.44897608 -0.82552681
vn 0.0000000e+0 0.44897608 -0.89354378
vn 0.34194440 0.44897608 -0.82552681
vn 0.63183086 0.44897608 -0.63183086
vn 0.82552681 0.44897608 -0.34194440
vn 0.96986038 -0.24366132 -2.4008509e-16
vn 0.89603416 -0.24366132 0.37114950
vn 0.68579485 -0.24366132 0.68579485
vn 0.37114950 -0.24366132 0.89603416
vn 0.0000000e+0 -0.24366132 0.96986038
vn -0.37114950 -0.24366132 0.89603416
vn -0.68579485 -0.24366132 0.68579485
vn -0.89603416 -0.24366132 0.37114950
vn -0.96986038 -0.24366132 2.9080729e-16
vn -0.89603416 -0.24366132 -0.37114950
vn -0.68579485 -0.24366132 -0.68579485
vn -0.37114950 -0.24366132 -0.89603416
vn 0.0000000e+0 -0.24366132 -0.96986038
vn 0.37114950 -0.24366132 -0.89603416
vn 0.68579485 -0.24366132 -0.68579485
vn 0.89603416 -0.24366132 -0.37114950
vn 0.43696120 -0.89527110 8.6916987e-2
vn 0.54225936 -0.83325899 -0.10786209
vn 0.30754178 -0.92908059 0.20549285
vn 0.20549285 -0.92908059 0.30754178
vn 7.2159493e-2 -0.92908059 0.36277027
vn -7.2159493e-2 -0.92908059 0.36277027
vn -0.20549285 -0.92908059 0.30754178
vn -0.30754178 -0.92908059 0.20549285
vn -0.54225936 -0.83325899 0.10786209
vn -0.43696120 -0.89527110 -8.6916987e-2
vn -0.30754178 -0.92908059 -0.20549285
vn -0.20549285 -0.92908059 -0.30754178
vn -7.2159493e-2 -0.92908059 -0.36277027
vn 7.2159493e-2 -0.92908059 -0.36277027
vn 0.20549285 -0.92908059 -0.30754178
vn 0.30754178 -0.92908059 -0.20549285
vn 0.78328833 0.60181722 0.15580574
vn 0.69187668 0.70877825 -0.13762283
vn 0.51791525 0.78230834 0.34605991
vn 0.34605991 0.78230834 0.51791525
vn 0.12152008 0.78230834 0.61092269
vn -0.12152008 0.78230834 0.61092269
vn -0.34605991 0.78230834 0.51791525
vn -0.51791525 0.78230834 0.34605991
vn -0.69187668 0.70877825 0.13762283
vn -0.78328833 0.60181722 -0.15580574
vn -0.51791525 0.78230834 -0.34605991
vn -0.34605991 0.78230834 -0.51791525
vn -0.12152008 0.78230834 -0.61092269
vn 0.12152008 0.78230834 -0.61092269
vn 0.34605991 0.78230834 -0.51791525
vn 0.51791525 0.78230834 -0.34605991
g Cylinder1_Cylinder1_auv
usemtl Cylinder1_auv
s 1
f 1/14/1 17/13/17 50/16/50
f 1/110/1 50/109/50 49/108/49
f 2/106/2 49/108/49 51/104/51
f 3/102/3 51/104/51 52/101/52
f 4/98/4 52/101/52 53/97/53
f 5/92/5 53/97/53 54/90/54
f 6/88/6 54/90/54 55/86/55
f 7/84/7 55/86/55 56/82/56
f 8/80/8 56/82/56 57/79/57
f 9/77/9 57/79/57 58/78/58
f 10/81/10 58/78/58 59/83/59
f 11/85/11 59/83/59 60/87/60
f 12/89/12 60/87/60 61/91/61
f 13/93/13 61/91/61 62/96/62
f 14/99/14 62/96/62 63/100/63
f 15/103/15 63/100/63 64/105/64
f 16/18/16 50/16/50 32/17/32
f 16/107/16 64/105/64 50/109/50
f 17/13/17 49/12/49 33/11/33
f 18/9/18 49/12/49 2/10/2
f 18/9/18 51/8/51 35/7/35
f 19/5/19 51/8/51 3/6/3
f 19/5/19 52/4/52 36/3/36
f 20/1/20 52/4/52 4/2/4
f 20/129/20 53/128/53 37/127/37
f 21/125/21 53/128/53 5/126/5
f 21/125/21 54/124/54 38/123/38
f 22/121/22 54/124/54 6/122/6
f 22/121/22 55/120/55 39/119/39
f 23/117/23 55/120/55 7/118/7
f 23/117/23 56/116/56 40/115/40
f 24/113/24 56/116/56 8/114/8
f 24/113/24 57/112/57 41/111/41
f 25/94/25 57/112/57 9/95/9
f 25/94/25 58/76/58 42/75/42
f 26/73/26 58/76/58 10/74/10
f 26/73/26 59/72/59 43/71/43
f 27/69/27 59/72/59 11/70/11
f 27/69/27 60/67/60 44/68/44
f 28/65/28 60/67/60 12/66/12
f 28/65/28 61/64/61 45/63/45
f 29/61/29 61/64/61 13/62/13
f 29/61/29 62/60/62 46/59/46
f 30/57/30 62/60/62 14/58/14
f 30/57/30 63/55/63 47/56/47
f 31/54/31 63/55/63 15/53/15
f 31/54/31 64/30/64 48/31/48
f 32/17/32 50/16/50 34/15/34
f 32/17/32 64/30/64 16/18/16
f 33/20/33 34/21/34 17/19/17
f 33/20/33 48/24/48 34/21/34
f 33/11/33 49/12/49 18/9/18
f 34/21/34 48/24/48 32/23/32
f 34/15/34 50/16/50 17/13/17
f 35/25/35 33/20/33 18/22/18
f 35/25/35 47/28/47 48/24/48
f 35/25/35 48/24/48 33/20/33
f 35/7/35 51/8/51 19/5/19
f 36/29/36 35/25/35 19/27/19
f 36/29/36 46/34/46 47/28/47
f 36/29/36 47/28/47 35/25/35
f 36/3/36 52/4/52 20/1/20
f 37/35/37 36/29/36 20/33/20
f 37/35/37 45/38/45 46/34/46
f 37/35/37 46/34/46 36/29/36
f 37/127/37 53/128/53 21/125/21
f 38/39/38 37/35/37 21/36/21
f 38/39/38 44/43/44 45/38/45
f 38/39/38 45/38/45 37/35/37
f 38/123/38 54/124/54 22/121/22
f 39/42/39 38/39/38 22/41/22
f 39/42/39 43/46/43 44/43/44
f 39/42/39 44/43/44 38/39/38
f 39/119/39 55/120/55 23/117/23
f 40/47/40 39/42/39 23/45/23
f 40/47/40 42/51/42 43/46/43
f 40/47/40 43/46/43 39/42/39
f 40/115/40 56/116/56 24/113/24
f 41/50/41 40/47/40 24/48/24
f 41/50/41 42/51/42 40/47/40
f 41/111/41 57/112/57 25/94/25
f 42/51/42 41/50/41 25/52/25
f 42/75/42 58/76/58 26/73/26
f 43/46/43 42/51/42 26/49/26
f 43/71/43 59/72/59 27/69/27
f 44/43/44 43/46/43 27/44/27
f 44/68/44 60/67/60 28/65/28
f 45/38/45 44/43/44 28/40/28
f 45/63/45 61/64/61 29/61/29
f 46/34/46 45/38/45 29/37/29
f 46/59/46 62/60/62 30/57/30
f 47/28/47 46/34/46 30/32/30
f 47/56/47 63/55/63 31/54/31
f 48/24/48 47/28/47 31/26/31
f 48/31/48 64/30/64 32/17/32
f 49/12/49 17/13/17 1/14/1
f 49/108/49 50/109/50 51/104/51
f 51/8/51 18/9/18 2/10/2
f 52/4/52 19/5/19 3/6/3
f 52/101/52 51/104/51 64/105/64
f 53/128/53 20/129/20 4/130/4
f 53/97/53 52/101/52 63/100/63
f 54/124/54 21/125/21 5/126/5
f 54/90/54 53/97/53 62/96/62
f 55/120/55 22/121/22 6/122/6
f 55/86/55 54/90/54 61/91/61
f 56/116/56 23/117/23 7/118/7
f 56/82/56 55/86/55 60/87/60
f 57/112/57 24/113/24 8/114/8
f 57/79/57 56/82/56 59/83/59
f 58/76/58 25/94/25 9/95/9
f 58/78/58 57/79/57 59/83/59
f 59/72/59 26/73/26 10/74/10
f 59/83/59 56/82/56 60/87/60
f 60/67/60 27/69/27 11/70/11
f 60/87/60 55/86/55 61/91/61
f 61/64/61 28/65/28 12/66/12
f 61/91/61 54/90/54 62/96/62
f 62/60/62 29/61/29 13/62/13
f 62/96/62 53/97/53 63/100/63
f 63/55/63 30/57/30 14/58/14
f 63/100/63 52/101/52 64/105/64
f 64/30/64 31/54/31 15/53/15
f 64/105/64 51/104/51 50/109/50
